<?xml version="1.0" encoding="utf-8" standalone="no"?>
<!DOCTYPE svg PUBLIC "-//W3C//DTD SVG 1.1//EN"
  "http://www.w3.org/Graphics/SVG/1.1/DTD/svg11.dtd">
<svg xmlns:xlink="http://www.w3.org/1999/xlink" width="648pt" height="360pt" viewBox="0 0 648 360" xmlns="http://www.w3.org/2000/svg" version="1.1">
 <metadata>
  <rdf:RDF xmlns:dc="http://purl.org/dc/elements/1.1/" xmlns:cc="http://creativecommons.org/ns#" xmlns:rdf="http://www.w3.org/1999/02/22-rdf-syntax-ns#">
   <cc:Work>
    <dc:type rdf:resource="http://purl.org/dc/dcmitype/StillImage"/>
    <dc:date>2026-07-15T23:25:43.267949</dc:date>
    <dc:format>image/svg+xml</dc:format>
    <dc:creator>
     <cc:Agent>
      <dc:title>Matplotlib v3.11.0, https://matplotlib.org/</dc:title>
     </cc:Agent>
    </dc:creator>
   </cc:Work>
  </rdf:RDF>
 </metadata>
 <defs>
  <style type="text/css">*{stroke-linejoin: round; stroke-linecap: butt}</style>
 </defs>
 <g id="figure_1">
  <g id="patch_1">
   <path d="M 0 360 
L 648 360 
L 648 0 
L 0 0 
z
" style="fill: #ffffff"/>
  </g>
  <g id="axes_1">
   <g id="patch_2">
    <path d="M 81 320.4 
L 583.2 320.4 
L 583.2 43.2 
L 81 43.2 
z
" style="fill: #ffffff"/>
   </g>
   <g id="patch_3">
    <path d="M 103.827273 320.4 
L 112.878383 320.4 
L 112.878383 43.2 
L 103.827273 43.2 
z
" clip-path="url(#p46d1c1cfb3)" style="fill: #8e3b6e; opacity: 0.12; stroke: #8e3b6e; stroke-linejoin: miter"/>
   </g>
   <g id="matplotlib.axis_1">
    <g id="xtick_1">
     <g id="line2d_1">
      <path d="M 109.725582 320.4 
L 109.725582 43.2 
" clip-path="url(#p46d1c1cfb3)" style="fill: none; stroke: #e6e2da; stroke-width: 0.6; stroke-linecap: square"/>
     </g>
     <g id="line2d_2">
      <defs>
       <path id="mc613628fd6" d="M 0 0 
L 0 3.5 
" style="stroke: #3a3a3a; stroke-width: 0.8"/>
      </defs>
      <g>
       <use xlink:href="#mc613628fd6" x="109.725582" y="320.4" style="fill: #3a3a3a; stroke: #3a3a3a; stroke-width: 0.8"/>
      </g>
     </g>
     <g id="text_1">
      <text style="font-size: 11px; font-family: 'DejaVu Sans', 'Bitstream Vera Sans', 'Computer Modern Sans Serif', 'Lucida Grande', 'Verdana', 'Geneva', 'Lucid', 'Arial', 'Helvetica', 'Avant Garde', sans-serif; text-anchor: middle; fill: #3a3a3a" x="109.725582" y="335.757422" transform="rotate(-0 109.725582 335.757422)">0.5</text>
     </g>
    </g>
    <g id="xtick_2">
     <g id="line2d_3">
      <path d="M 200.511231 320.4 
L 200.511231 43.2 
" clip-path="url(#p46d1c1cfb3)" style="fill: none; stroke: #e6e2da; stroke-width: 0.6; stroke-linecap: square"/>
     </g>
     <g id="line2d_4">
      <g>
       <use xlink:href="#mc613628fd6" x="200.511231" y="320.4" style="fill: #3a3a3a; stroke: #3a3a3a; stroke-width: 0.8"/>
      </g>
     </g>
     <g id="text_2">
      <text style="font-size: 11px; font-family: 'DejaVu Sans', 'Bitstream Vera Sans', 'Computer Modern Sans Serif', 'Lucida Grande', 'Verdana', 'Geneva', 'Lucid', 'Arial', 'Helvetica', 'Avant Garde', sans-serif; text-anchor: middle; fill: #3a3a3a" x="200.511231" y="335.757422" transform="rotate(-0 200.511231 335.757422)">0.6</text>
     </g>
    </g>
    <g id="xtick_3">
     <g id="line2d_5">
      <path d="M 291.29688 320.4 
L 291.29688 43.2 
" clip-path="url(#p46d1c1cfb3)" style="fill: none; stroke: #e6e2da; stroke-width: 0.6; stroke-linecap: square"/>
     </g>
     <g id="line2d_6">
      <g>
       <use xlink:href="#mc613628fd6" x="291.29688" y="320.4" style="fill: #3a3a3a; stroke: #3a3a3a; stroke-width: 0.8"/>
      </g>
     </g>
     <g id="text_3">
      <text style="font-size: 11px; font-family: 'DejaVu Sans', 'Bitstream Vera Sans', 'Computer Modern Sans Serif', 'Lucida Grande', 'Verdana', 'Geneva', 'Lucid', 'Arial', 'Helvetica', 'Avant Garde', sans-serif; text-anchor: middle; fill: #3a3a3a" x="291.29688" y="335.757422" transform="rotate(-0 291.29688 335.757422)">0.7</text>
     </g>
    </g>
    <g id="xtick_4">
     <g id="line2d_7">
      <path d="M 382.082529 320.4 
L 382.082529 43.2 
" clip-path="url(#p46d1c1cfb3)" style="fill: none; stroke: #e6e2da; stroke-width: 0.6; stroke-linecap: square"/>
     </g>
     <g id="line2d_8">
      <g>
       <use xlink:href="#mc613628fd6" x="382.082529" y="320.4" style="fill: #3a3a3a; stroke: #3a3a3a; stroke-width: 0.8"/>
      </g>
     </g>
     <g id="text_4">
      <text style="font-size: 11px; font-family: 'DejaVu Sans', 'Bitstream Vera Sans', 'Computer Modern Sans Serif', 'Lucida Grande', 'Verdana', 'Geneva', 'Lucid', 'Arial', 'Helvetica', 'Avant Garde', sans-serif; text-anchor: middle; fill: #3a3a3a" x="382.082529" y="335.757422" transform="rotate(-0 382.082529 335.757422)">0.8</text>
     </g>
    </g>
    <g id="xtick_5">
     <g id="line2d_9">
      <path d="M 472.868177 320.4 
L 472.868177 43.2 
" clip-path="url(#p46d1c1cfb3)" style="fill: none; stroke: #e6e2da; stroke-width: 0.6; stroke-linecap: square"/>
     </g>
     <g id="line2d_10">
      <g>
       <use xlink:href="#mc613628fd6" x="472.868177" y="320.4" style="fill: #3a3a3a; stroke: #3a3a3a; stroke-width: 0.8"/>
      </g>
     </g>
     <g id="text_5">
      <text style="font-size: 11px; font-family: 'DejaVu Sans', 'Bitstream Vera Sans', 'Computer Modern Sans Serif', 'Lucida Grande', 'Verdana', 'Geneva', 'Lucid', 'Arial', 'Helvetica', 'Avant Garde', sans-serif; text-anchor: middle; fill: #3a3a3a" x="472.868177" y="335.757422" transform="rotate(-0 472.868177 335.757422)">0.9</text>
     </g>
    </g>
    <g id="xtick_6">
     <g id="line2d_11">
      <path d="M 563.653826 320.4 
L 563.653826 43.2 
" clip-path="url(#p46d1c1cfb3)" style="fill: none; stroke: #e6e2da; stroke-width: 0.6; stroke-linecap: square"/>
     </g>
     <g id="line2d_12">
      <g>
       <use xlink:href="#mc613628fd6" x="563.653826" y="320.4" style="fill: #3a3a3a; stroke: #3a3a3a; stroke-width: 0.8"/>
      </g>
     </g>
     <g id="text_6">
      <text style="font-size: 11px; font-family: 'DejaVu Sans', 'Bitstream Vera Sans', 'Computer Modern Sans Serif', 'Lucida Grande', 'Verdana', 'Geneva', 'Lucid', 'Arial', 'Helvetica', 'Avant Garde', sans-serif; text-anchor: middle; fill: #3a3a3a" x="563.653826" y="335.757422" transform="rotate(-0 563.653826 335.757422)">1.0</text>
     </g>
    </g>
    <g id="text_7">
     <text style="font-size: 11px; font-family: 'DejaVu Sans', 'Bitstream Vera Sans', 'Computer Modern Sans Serif', 'Lucida Grande', 'Verdana', 'Geneva', 'Lucid', 'Arial', 'Helvetica', 'Avant Garde', sans-serif; text-anchor: middle; fill: #3a3a3a" x="332.1" y="350.758281" transform="rotate(-0 332.1 350.758281)">recovered frequency (Hz), BOP-DMD point estimate +- 95% CI</text>
    </g>
   </g>
   <g id="matplotlib.axis_2">
    <g id="ytick_1">
     <g id="line2d_13">
      <path d="M 81 307.8 
L 583.2 307.8 
" clip-path="url(#p46d1c1cfb3)" style="fill: none; stroke: #e6e2da; stroke-width: 0.6; stroke-linecap: square"/>
     </g>
     <g id="line2d_14">
      <defs>
       <path id="m45e2fa8e04" d="M 0 0 
L -3.5 0 
" style="stroke: #3a3a3a; stroke-width: 0.8"/>
      </defs>
      <g>
       <use xlink:href="#m45e2fa8e04" x="81" y="307.8" style="fill: #3a3a3a; stroke: #3a3a3a; stroke-width: 0.8"/>
      </g>
     </g>
     <g id="text_8">
      <text style="font-size: 11px; font-family: 'DejaVu Sans', 'Bitstream Vera Sans', 'Computer Modern Sans Serif', 'Lucida Grande', 'Verdana', 'Geneva', 'Lucid', 'Arial', 'Helvetica', 'Avant Garde', sans-serif; text-anchor: end; fill: #3a3a3a" x="74" y="311.979141" transform="rotate(-0 74 311.979141)">seed 0</text>
     </g>
    </g>
    <g id="ytick_2">
     <g id="line2d_15">
      <path d="M 81 244.8 
L 583.2 244.8 
" clip-path="url(#p46d1c1cfb3)" style="fill: none; stroke: #e6e2da; stroke-width: 0.6; stroke-linecap: square"/>
     </g>
     <g id="line2d_16">
      <g>
       <use xlink:href="#m45e2fa8e04" x="81" y="244.8" style="fill: #3a3a3a; stroke: #3a3a3a; stroke-width: 0.8"/>
      </g>
     </g>
     <g id="text_9">
      <text style="font-size: 11px; font-family: 'DejaVu Sans', 'Bitstream Vera Sans', 'Computer Modern Sans Serif', 'Lucida Grande', 'Verdana', 'Geneva', 'Lucid', 'Arial', 'Helvetica', 'Avant Garde', sans-serif; text-anchor: end; fill: #3a3a3a" x="74" y="248.979141" transform="rotate(-0 74 248.979141)">seed 1</text>
     </g>
    </g>
    <g id="ytick_3">
     <g id="line2d_17">
      <path d="M 81 181.8 
L 583.2 181.8 
" clip-path="url(#p46d1c1cfb3)" style="fill: none; stroke: #e6e2da; stroke-width: 0.6; stroke-linecap: square"/>
     </g>
     <g id="line2d_18">
      <g>
       <use xlink:href="#m45e2fa8e04" x="81" y="181.8" style="fill: #3a3a3a; stroke: #3a3a3a; stroke-width: 0.8"/>
      </g>
     </g>
     <g id="text_10">
      <text style="font-size: 11px; font-family: 'DejaVu Sans', 'Bitstream Vera Sans', 'Computer Modern Sans Serif', 'Lucida Grande', 'Verdana', 'Geneva', 'Lucid', 'Arial', 'Helvetica', 'Avant Garde', sans-serif; text-anchor: end; fill: #3a3a3a" x="74" y="185.979141" transform="rotate(-0 74 185.979141)">seed 2</text>
     </g>
    </g>
    <g id="ytick_4">
     <g id="line2d_19">
      <path d="M 81 118.8 
L 583.2 118.8 
" clip-path="url(#p46d1c1cfb3)" style="fill: none; stroke: #e6e2da; stroke-width: 0.6; stroke-linecap: square"/>
     </g>
     <g id="line2d_20">
      <g>
       <use xlink:href="#m45e2fa8e04" x="81" y="118.8" style="fill: #3a3a3a; stroke: #3a3a3a; stroke-width: 0.8"/>
      </g>
     </g>
     <g id="text_11">
      <text style="font-size: 11px; font-family: 'DejaVu Sans', 'Bitstream Vera Sans', 'Computer Modern Sans Serif', 'Lucida Grande', 'Verdana', 'Geneva', 'Lucid', 'Arial', 'Helvetica', 'Avant Garde', sans-serif; text-anchor: end; fill: #3a3a3a" x="74" y="122.979141" transform="rotate(-0 74 122.979141)">seed 3</text>
     </g>
    </g>
    <g id="ytick_5">
     <g id="line2d_21">
      <path d="M 81 55.8 
L 583.2 55.8 
" clip-path="url(#p46d1c1cfb3)" style="fill: none; stroke: #e6e2da; stroke-width: 0.6; stroke-linecap: square"/>
     </g>
     <g id="line2d_22">
      <g>
       <use xlink:href="#m45e2fa8e04" x="81" y="55.8" style="fill: #3a3a3a; stroke: #3a3a3a; stroke-width: 0.8"/>
      </g>
     </g>
     <g id="text_12">
      <text style="font-size: 11px; font-family: 'DejaVu Sans', 'Bitstream Vera Sans', 'Computer Modern Sans Serif', 'Lucida Grande', 'Verdana', 'Geneva', 'Lucid', 'Arial', 'Helvetica', 'Avant Garde', sans-serif; text-anchor: end; fill: #3a3a3a" x="74" y="59.979141" transform="rotate(-0 74 59.979141)">seed 4</text>
     </g>
    </g>
   </g>
   <g id="line2d_23">
    <path d="M 108.352828 320.4 
L 108.352828 43.2 
" clip-path="url(#p46d1c1cfb3)" style="fill: none; stroke: #2a2a2a; stroke-width: 1.4; stroke-linecap: square"/>
   </g>
   <g id="LineCollection_1">
    <path d="M 560.32062 307.8 
L 560.365237 307.8 
" clip-path="url(#p46d1c1cfb3)" style="fill: none; stroke: #4c9db0; stroke-width: 1.6"/>
   </g>
   <g id="line2d_24">
    <defs>
     <path id="m757b540b03" d="M 0 4 
L 0 -4 
" style="stroke: #4c9db0"/>
    </defs>
    <g clip-path="url(#p46d1c1cfb3)">
     <use xlink:href="#m757b540b03" x="560.32062" y="307.8" style="fill: #4c9db0; stroke: #4c9db0"/>
    </g>
   </g>
   <g id="line2d_25">
    <g clip-path="url(#p46d1c1cfb3)">
     <use xlink:href="#m757b540b03" x="560.365237" y="307.8" style="fill: #4c9db0; stroke: #4c9db0"/>
    </g>
   </g>
   <g id="LineCollection_2">
    <path d="M 108.065681 244.8 
L 108.07398 244.8 
" clip-path="url(#p46d1c1cfb3)" style="fill: none; stroke: #d99a2b; stroke-width: 1.6"/>
   </g>
   <g id="line2d_26">
    <defs>
     <path id="m601da8c3d4" d="M 0 4 
L 0 -4 
" style="stroke: #d99a2b"/>
    </defs>
    <g clip-path="url(#p46d1c1cfb3)">
     <use xlink:href="#m601da8c3d4" x="108.065681" y="244.8" style="fill: #d99a2b; stroke: #d99a2b"/>
    </g>
   </g>
   <g id="line2d_27">
    <g clip-path="url(#p46d1c1cfb3)">
     <use xlink:href="#m601da8c3d4" x="108.07398" y="244.8" style="fill: #d99a2b; stroke: #d99a2b"/>
    </g>
   </g>
   <g id="LineCollection_3">
    <path d="M 560.30437 181.8 
L 560.372727 181.8 
" clip-path="url(#p46d1c1cfb3)" style="fill: none; stroke: #8bbf7a; stroke-width: 1.6"/>
   </g>
   <g id="line2d_28">
    <defs>
     <path id="mf7438a8dc4" d="M 0 4 
L 0 -4 
" style="stroke: #8bbf7a"/>
    </defs>
    <g clip-path="url(#p46d1c1cfb3)">
     <use xlink:href="#mf7438a8dc4" x="560.30437" y="181.8" style="fill: #8bbf7a; stroke: #8bbf7a"/>
    </g>
   </g>
   <g id="line2d_29">
    <g clip-path="url(#p46d1c1cfb3)">
     <use xlink:href="#mf7438a8dc4" x="560.372727" y="181.8" style="fill: #8bbf7a; stroke: #8bbf7a"/>
    </g>
   </g>
   <g id="LineCollection_4">
    <path d="M 560.323392 118.8 
L 560.356095 118.8 
" clip-path="url(#p46d1c1cfb3)" style="fill: none; stroke: #8e3b6e; stroke-width: 1.6"/>
   </g>
   <g id="line2d_30">
    <defs>
     <path id="m82319e4250" d="M 0 4 
L 0 -4 
" style="stroke: #8e3b6e"/>
    </defs>
    <g clip-path="url(#p46d1c1cfb3)">
     <use xlink:href="#m82319e4250" x="560.323392" y="118.8" style="fill: #8e3b6e; stroke: #8e3b6e"/>
    </g>
   </g>
   <g id="line2d_31">
    <g clip-path="url(#p46d1c1cfb3)">
     <use xlink:href="#m82319e4250" x="560.356095" y="118.8" style="fill: #8e3b6e; stroke: #8e3b6e"/>
    </g>
   </g>
   <g id="LineCollection_5">
    <path d="M 108.067323 55.8 
L 108.072909 55.8 
" clip-path="url(#p46d1c1cfb3)" style="fill: none; stroke: #5a6b8c; stroke-width: 1.6"/>
   </g>
   <g id="line2d_32">
    <defs>
     <path id="m6963541e32" d="M 0 4 
L 0 -4 
" style="stroke: #5a6b8c"/>
    </defs>
    <g clip-path="url(#p46d1c1cfb3)">
     <use xlink:href="#m6963541e32" x="108.067323" y="55.8" style="fill: #5a6b8c; stroke: #5a6b8c"/>
    </g>
   </g>
   <g id="line2d_33">
    <g clip-path="url(#p46d1c1cfb3)">
     <use xlink:href="#m6963541e32" x="108.072909" y="55.8" style="fill: #5a6b8c; stroke: #5a6b8c"/>
    </g>
   </g>
   <g id="line2d_34">
    <defs>
     <path id="mea2817821e" d="M 0 3.5 
C 0.928211 3.5 1.81853 3.131218 2.474874 2.474874 
C 3.131218 1.81853 3.5 0.928211 3.5 0 
C 3.5 -0.928211 3.131218 -1.81853 2.474874 -2.474874 
C 1.81853 -3.131218 0.928211 -3.5 0 -3.5 
C -0.928211 -3.5 -1.81853 -3.131218 -2.474874 -2.474874 
C -3.131218 -1.81853 -3.5 -0.928211 -3.5 0 
C -3.5 0.928211 -3.131218 1.81853 -2.474874 2.474874 
C -1.81853 3.131218 -0.928211 3.5 0 3.5 
z
" style="stroke: #4c9db0"/>
    </defs>
    <g clip-path="url(#p46d1c1cfb3)">
     <use xlink:href="#mea2817821e" x="560.342928" y="307.8" style="fill: #4c9db0; stroke: #4c9db0"/>
    </g>
   </g>
   <g id="line2d_35">
    <defs>
     <path id="mfc5a71cd1d" d="M 0 3.5 
C 0.928211 3.5 1.81853 3.131218 2.474874 2.474874 
C 3.131218 1.81853 3.5 0.928211 3.5 0 
C 3.5 -0.928211 3.131218 -1.81853 2.474874 -2.474874 
C 1.81853 -3.131218 0.928211 -3.5 0 -3.5 
C -0.928211 -3.5 -1.81853 -3.131218 -2.474874 -2.474874 
C -3.131218 -1.81853 -3.5 -0.928211 -3.5 0 
C -3.5 0.928211 -3.131218 1.81853 -2.474874 2.474874 
C -1.81853 3.131218 -0.928211 3.5 0 3.5 
z
" style="stroke: #d99a2b"/>
    </defs>
    <g clip-path="url(#p46d1c1cfb3)">
     <use xlink:href="#mfc5a71cd1d" x="108.06983" y="244.8" style="fill: #d99a2b; stroke: #d99a2b"/>
    </g>
   </g>
   <g id="line2d_36">
    <defs>
     <path id="m7fe38d7ff2" d="M 0 3.5 
C 0.928211 3.5 1.81853 3.131218 2.474874 2.474874 
C 3.131218 1.81853 3.5 0.928211 3.5 0 
C 3.5 -0.928211 3.131218 -1.81853 2.474874 -2.474874 
C 1.81853 -3.131218 0.928211 -3.5 0 -3.5 
C -0.928211 -3.5 -1.81853 -3.131218 -2.474874 -2.474874 
C -3.131218 -1.81853 -3.5 -0.928211 -3.5 0 
C -3.5 0.928211 -3.131218 1.81853 -2.474874 2.474874 
C -1.81853 3.131218 -0.928211 3.5 0 3.5 
z
" style="stroke: #8bbf7a"/>
    </defs>
    <g clip-path="url(#p46d1c1cfb3)">
     <use xlink:href="#m7fe38d7ff2" x="560.338549" y="181.8" style="fill: #8bbf7a; stroke: #8bbf7a"/>
    </g>
   </g>
   <g id="line2d_37">
    <defs>
     <path id="m833c8361a8" d="M 0 3.5 
C 0.928211 3.5 1.81853 3.131218 2.474874 2.474874 
C 3.131218 1.81853 3.5 0.928211 3.5 0 
C 3.5 -0.928211 3.131218 -1.81853 2.474874 -2.474874 
C 1.81853 -3.131218 0.928211 -3.5 0 -3.5 
C -0.928211 -3.5 -1.81853 -3.131218 -2.474874 -2.474874 
C -3.131218 -1.81853 -3.5 -0.928211 -3.5 0 
C -3.5 0.928211 -3.131218 1.81853 -2.474874 2.474874 
C -1.81853 3.131218 -0.928211 3.5 0 3.5 
z
" style="stroke: #8e3b6e"/>
    </defs>
    <g clip-path="url(#p46d1c1cfb3)">
     <use xlink:href="#m833c8361a8" x="560.339743" y="118.8" style="fill: #8e3b6e; stroke: #8e3b6e"/>
    </g>
   </g>
   <g id="line2d_38">
    <defs>
     <path id="mddaefa3da8" d="M 0 3.5 
C 0.928211 3.5 1.81853 3.131218 2.474874 2.474874 
C 3.131218 1.81853 3.5 0.928211 3.5 0 
C 3.5 -0.928211 3.131218 -1.81853 2.474874 -2.474874 
C 1.81853 -3.131218 0.928211 -3.5 0 -3.5 
C -0.928211 -3.5 -1.81853 -3.131218 -2.474874 -2.474874 
C -3.131218 -1.81853 -3.5 -0.928211 -3.5 0 
C -3.5 0.928211 -3.131218 1.81853 -2.474874 2.474874 
C -1.81853 3.131218 -0.928211 3.5 0 3.5 
z
" style="stroke: #5a6b8c"/>
    </defs>
    <g clip-path="url(#p46d1c1cfb3)">
     <use xlink:href="#mddaefa3da8" x="108.070116" y="55.8" style="fill: #5a6b8c; stroke: #5a6b8c"/>
    </g>
   </g>
   <g id="patch_4">
    <path d="M 81 320.4 
L 81 43.2 
" style="fill: none; stroke: #3a3a3a; stroke-width: 0.8; stroke-linejoin: miter; stroke-linecap: square"/>
   </g>
   <g id="patch_5">
    <path d="M 81 320.4 
L 583.2 320.4 
" style="fill: none; stroke: #3a3a3a; stroke-width: 0.8; stroke-linejoin: miter; stroke-linecap: square"/>
   </g>
   <g id="text_13">
    <text style="font-weight: 700; font-size: 13px; font-family: 'DejaVu Sans', 'Bitstream Vera Sans', 'Computer Modern Sans Serif', 'Lucida Grande', 'Verdana', 'Geneva', 'Lucid', 'Arial', 'Helvetica', 'Avant Garde', sans-serif; text-anchor: start; fill: #2a2a2a" x="81" y="37.2" transform="rotate(-0 81 37.2)">BOP-DMD frequency matches f0 for 2/5 seeds; rest land on the 1st harmonic</text>
   </g>
   <g id="legend_1">
    <g id="patch_6">
     <path d="M 468.345 299.2775 
L 484.345 299.2775 
L 484.345 293.6775 
L 468.345 293.6775 
z
" style="fill: #8e3b6e; opacity: 0.12; stroke: #8e3b6e; stroke-linejoin: miter"/>
    </g>
    <g id="text_14">
     <text style="font-size: 8px; font-family: 'DejaVu Sans', 'Bitstream Vera Sans', 'Computer Modern Sans Serif', 'Lucida Grande', 'Verdana', 'Geneva', 'Lucid', 'Arial', 'Helvetica', 'Avant Garde', sans-serif; text-anchor: start; fill: #2a2a2a" x="490.745" y="299.2775" transform="rotate(-0 490.745 299.2775)">+-1% tolerance band</text>
    </g>
    <g id="line2d_39">
     <path d="M 468.345 308.478125 
L 476.345 308.478125 
L 484.345 308.478125 
" style="fill: none; stroke: #2a2a2a; stroke-width: 1.4; stroke-linecap: square"/>
    </g>
    <g id="text_15">
     <text style="font-size: 8px; font-family: 'DejaVu Sans', 'Bitstream Vera Sans', 'Computer Modern Sans Serif', 'Lucida Grande', 'Verdana', 'Geneva', 'Lucid', 'Arial', 'Helvetica', 'Avant Garde', sans-serif; text-anchor: start; fill: #2a2a2a" x="490.745" y="311.278125" transform="rotate(-0 490.745 311.278125)">f0 = 0.49849 Hz</text>
    </g>
   </g>
  </g>
 </g>
 <defs>
  <clipPath id="p46d1c1cfb3">
   <rect x="81" y="43.2" width="502.2" height="277.2"/>
  </clipPath>
 </defs>
</svg>
