<?xml version="1.0" encoding="utf-8" standalone="no"?>
<!DOCTYPE svg PUBLIC "-//W3C//DTD SVG 1.1//EN"
  "http://www.w3.org/Graphics/SVG/1.1/DTD/svg11.dtd">
<svg xmlns:xlink="http://www.w3.org/1999/xlink" width="576pt" height="396pt" viewBox="0 0 576 396" xmlns="http://www.w3.org/2000/svg" version="1.1">
 <metadata>
  <rdf:RDF xmlns:dc="http://purl.org/dc/elements/1.1/" xmlns:cc="http://creativecommons.org/ns#" xmlns:rdf="http://www.w3.org/1999/02/22-rdf-syntax-ns#">
   <cc:Work>
    <dc:type rdf:resource="http://purl.org/dc/dcmitype/StillImage"/>
    <dc:date>2026-07-16T12:51:32.118849</dc:date>
    <dc:format>image/svg+xml</dc:format>
    <dc:creator>
     <cc:Agent>
      <dc:title>Matplotlib v3.11.0, https://matplotlib.org/</dc:title>
     </cc:Agent>
    </dc:creator>
   </cc:Work>
  </rdf:RDF>
 </metadata>
 <defs>
  <style type="text/css">*{stroke-linejoin: round; stroke-linecap: butt}</style>
 </defs>
 <g id="figure_1">
  <g id="patch_1">
   <path d="M 0 396 
L 576 396 
L 576 0 
L 0 0 
z
" style="fill: #ffffff"/>
  </g>
  <g id="axes_1">
   <g id="patch_2">
    <path d="M 72 352.44 
L 518.4 352.44 
L 518.4 47.52 
L 72 47.52 
z
" style="fill: #ffffff"/>
   </g>
   <g id="patch_3">
    <path d="M 72 338.58 
L 518.4 338.58 
L 518.4 333.437893 
L 72 333.437893 
z
" clip-path="url(#p9ce5612965)" style="fill: #8e3b6e; opacity: 0.12; stroke: #8e3b6e; stroke-linejoin: miter"/>
   </g>
   <g id="matplotlib.axis_1">
    <g id="xtick_1">
     <g id="line2d_1">
      <path d="M 72 352.44 
L 72 47.52 
" clip-path="url(#p9ce5612965)" style="fill: none; stroke: #e6e2da; stroke-width: 0.6; stroke-linecap: square"/>
     </g>
     <g id="line2d_2">
      <defs>
       <path id="mf2238e1655" d="M 0 0 
L 0 3.5 
" style="stroke: #3a3a3a; stroke-width: 0.8"/>
      </defs>
      <g>
       <use xlink:href="#mf2238e1655" x="72" y="352.44" style="fill: #3a3a3a; stroke: #3a3a3a; stroke-width: 0.8"/>
      </g>
     </g>
     <g id="text_1">
      <text style="font-size: 11px; font-family: 'DejaVu Sans', 'Bitstream Vera Sans', 'Computer Modern Sans Serif', 'Lucida Grande', 'Verdana', 'Geneva', 'Lucid', 'Arial', 'Helvetica', 'Avant Garde', sans-serif; text-anchor: middle; fill: #3a3a3a" x="72" y="367.797422" transform="rotate(-0 72 367.797422)">1</text>
     </g>
    </g>
    <g id="xtick_2">
     <g id="line2d_3">
      <path d="M 169.85325 352.44 
L 169.85325 47.52 
" clip-path="url(#p9ce5612965)" style="fill: none; stroke: #e6e2da; stroke-width: 0.6; stroke-linecap: square"/>
     </g>
     <g id="line2d_4">
      <g>
       <use xlink:href="#mf2238e1655" x="169.85325" y="352.44" style="fill: #3a3a3a; stroke: #3a3a3a; stroke-width: 0.8"/>
      </g>
     </g>
     <g id="text_2">
      <text style="font-size: 11px; font-family: 'DejaVu Sans', 'Bitstream Vera Sans', 'Computer Modern Sans Serif', 'Lucida Grande', 'Verdana', 'Geneva', 'Lucid', 'Arial', 'Helvetica', 'Avant Garde', sans-serif; text-anchor: middle; fill: #3a3a3a" x="169.85325" y="367.797422" transform="rotate(-0 169.85325 367.797422)">2</text>
     </g>
    </g>
    <g id="xtick_3">
     <g id="line2d_5">
      <path d="M 227.093732 352.44 
L 227.093732 47.52 
" clip-path="url(#p9ce5612965)" style="fill: none; stroke: #e6e2da; stroke-width: 0.6; stroke-linecap: square"/>
     </g>
     <g id="line2d_6">
      <g>
       <use xlink:href="#mf2238e1655" x="227.093732" y="352.44" style="fill: #3a3a3a; stroke: #3a3a3a; stroke-width: 0.8"/>
      </g>
     </g>
     <g id="text_3">
      <text style="font-size: 11px; font-family: 'DejaVu Sans', 'Bitstream Vera Sans', 'Computer Modern Sans Serif', 'Lucida Grande', 'Verdana', 'Geneva', 'Lucid', 'Arial', 'Helvetica', 'Avant Garde', sans-serif; text-anchor: middle; fill: #3a3a3a" x="227.093732" y="367.797422" transform="rotate(-0 227.093732 367.797422)">3</text>
     </g>
    </g>
    <g id="xtick_4">
     <g id="line2d_7">
      <path d="M 299.208211 352.44 
L 299.208211 47.52 
" clip-path="url(#p9ce5612965)" style="fill: none; stroke: #e6e2da; stroke-width: 0.6; stroke-linecap: square"/>
     </g>
     <g id="line2d_8">
      <g>
       <use xlink:href="#mf2238e1655" x="299.208211" y="352.44" style="fill: #3a3a3a; stroke: #3a3a3a; stroke-width: 0.8"/>
      </g>
     </g>
     <g id="text_4">
      <text style="font-size: 11px; font-family: 'DejaVu Sans', 'Bitstream Vera Sans', 'Computer Modern Sans Serif', 'Lucida Grande', 'Verdana', 'Geneva', 'Lucid', 'Arial', 'Helvetica', 'Avant Garde', sans-serif; text-anchor: middle; fill: #3a3a3a" x="299.208211" y="367.797422" transform="rotate(-0 299.208211 367.797422)">5</text>
     </g>
    </g>
    <g id="xtick_5">
     <g id="line2d_9">
      <path d="M 365.559751 352.44 
L 365.559751 47.52 
" clip-path="url(#p9ce5612965)" style="fill: none; stroke: #e6e2da; stroke-width: 0.6; stroke-linecap: square"/>
     </g>
     <g id="line2d_10">
      <g>
       <use xlink:href="#mf2238e1655" x="365.559751" y="352.44" style="fill: #3a3a3a; stroke: #3a3a3a; stroke-width: 0.8"/>
      </g>
     </g>
     <g id="text_5">
      <text style="font-size: 11px; font-family: 'DejaVu Sans', 'Bitstream Vera Sans', 'Computer Modern Sans Serif', 'Lucida Grande', 'Verdana', 'Geneva', 'Lucid', 'Arial', 'Helvetica', 'Avant Garde', sans-serif; text-anchor: middle; fill: #3a3a3a" x="365.559751" y="367.797422" transform="rotate(-0 365.559751 367.797422)">8</text>
     </g>
    </g>
    <g id="xtick_6">
     <g id="line2d_11">
      <path d="M 434.100054 352.44 
L 434.100054 47.52 
" clip-path="url(#p9ce5612965)" style="fill: none; stroke: #e6e2da; stroke-width: 0.6; stroke-linecap: square"/>
     </g>
     <g id="line2d_12">
      <g>
       <use xlink:href="#mf2238e1655" x="434.100054" y="352.44" style="fill: #3a3a3a; stroke: #3a3a3a; stroke-width: 0.8"/>
      </g>
     </g>
     <g id="text_6">
      <text style="font-size: 11px; font-family: 'DejaVu Sans', 'Bitstream Vera Sans', 'Computer Modern Sans Serif', 'Lucida Grande', 'Verdana', 'Geneva', 'Lucid', 'Arial', 'Helvetica', 'Avant Garde', sans-serif; text-anchor: middle; fill: #3a3a3a" x="434.100054" y="367.797422" transform="rotate(-0 434.100054 367.797422)">13</text>
     </g>
    </g>
    <g id="xtick_7">
     <g id="line2d_13">
      <path d="M 501.802536 352.44 
L 501.802536 47.52 
" clip-path="url(#p9ce5612965)" style="fill: none; stroke: #e6e2da; stroke-width: 0.6; stroke-linecap: square"/>
     </g>
     <g id="line2d_14">
      <g>
       <use xlink:href="#mf2238e1655" x="501.802536" y="352.44" style="fill: #3a3a3a; stroke: #3a3a3a; stroke-width: 0.8"/>
      </g>
     </g>
     <g id="text_7">
      <text style="font-size: 11px; font-family: 'DejaVu Sans', 'Bitstream Vera Sans', 'Computer Modern Sans Serif', 'Lucida Grande', 'Verdana', 'Geneva', 'Lucid', 'Arial', 'Helvetica', 'Avant Garde', sans-serif; text-anchor: middle; fill: #3a3a3a" x="501.802536" y="367.797422" transform="rotate(-0 501.802536 367.797422)">21</text>
     </g>
    </g>
    <g id="xtick_8">
     <g id="line2d_15">
      <defs>
       <path id="m39dc7bf773" d="M 0 0 
L 0 2 
" style="stroke: #3a3a3a; stroke-width: 0.6"/>
      </defs>
      <g>
       <use xlink:href="#m39dc7bf773" x="267.7065" y="352.44" style="fill: #3a3a3a; stroke: #3a3a3a; stroke-width: 0.6"/>
      </g>
     </g>
    </g>
    <g id="xtick_9">
     <g id="line2d_16">
      <g>
       <use xlink:href="#m39dc7bf773" x="324.946982" y="352.44" style="fill: #3a3a3a; stroke: #3a3a3a; stroke-width: 0.6"/>
      </g>
     </g>
    </g>
    <g id="xtick_10">
     <g id="line2d_17">
      <g>
       <use xlink:href="#m39dc7bf773" x="346.708804" y="352.44" style="fill: #3a3a3a; stroke: #3a3a3a; stroke-width: 0.6"/>
      </g>
     </g>
    </g>
    <g id="xtick_11">
     <g id="line2d_18">
      <g>
       <use xlink:href="#m39dc7bf773" x="382.187464" y="352.44" style="fill: #3a3a3a; stroke: #3a3a3a; stroke-width: 0.6"/>
      </g>
     </g>
    </g>
    <g id="xtick_12">
     <g id="line2d_19">
      <g>
       <use xlink:href="#m39dc7bf773" x="494.914711" y="352.44" style="fill: #3a3a3a; stroke: #3a3a3a; stroke-width: 0.6"/>
      </g>
     </g>
    </g>
    <g id="text_8">
     <text style="font-size: 11px; font-family: 'DejaVu Sans', 'Bitstream Vera Sans', 'Computer Modern Sans Serif', 'Lucida Grande', 'Verdana', 'Geneva', 'Lucid', 'Arial', 'Helvetica', 'Avant Garde', sans-serif; text-anchor: middle; fill: #3a3a3a" x="295.2" y="382.798281" transform="rotate(-0 295.2 382.798281)">delay count q</text>
    </g>
   </g>
   <g id="matplotlib.axis_2">
    <g id="ytick_1">
     <g id="line2d_20">
      <path d="M 72 335.229058 
L 518.4 335.229058 
" clip-path="url(#p9ce5612965)" style="fill: none; stroke: #e6e2da; stroke-width: 0.6; stroke-linecap: square"/>
     </g>
     <g id="line2d_21">
      <defs>
       <path id="m2f94e26b5d" d="M 0 0 
L -3.5 0 
" style="stroke: #3a3a3a; stroke-width: 0.8"/>
      </defs>
      <g>
       <use xlink:href="#m2f94e26b5d" x="72" y="335.229058" style="fill: #3a3a3a; stroke: #3a3a3a; stroke-width: 0.8"/>
      </g>
     </g>
     <g id="text_9">
      <text style="font-size: 11px; font-family: 'DejaVu Sans', 'Bitstream Vera Sans', 'Computer Modern Sans Serif', 'Lucida Grande', 'Verdana', 'Geneva', 'Lucid', 'Arial', 'Helvetica', 'Avant Garde', sans-serif; text-anchor: end; fill: #3a3a3a" x="65" y="339.407769" transform="rotate(-0 65 339.407769)">0.5</text>
     </g>
    </g>
    <g id="ytick_2">
     <g id="line2d_22">
      <path d="M 72 283.652008 
L 518.4 283.652008 
" clip-path="url(#p9ce5612965)" style="fill: none; stroke: #e6e2da; stroke-width: 0.6; stroke-linecap: square"/>
     </g>
     <g id="line2d_23">
      <g>
       <use xlink:href="#m2f94e26b5d" x="72" y="283.652008" style="fill: #3a3a3a; stroke: #3a3a3a; stroke-width: 0.8"/>
      </g>
     </g>
     <g id="text_10">
      <text style="font-size: 11px; font-family: 'DejaVu Sans', 'Bitstream Vera Sans', 'Computer Modern Sans Serif', 'Lucida Grande', 'Verdana', 'Geneva', 'Lucid', 'Arial', 'Helvetica', 'Avant Garde', sans-serif; text-anchor: end; fill: #3a3a3a" x="65" y="287.830719" transform="rotate(-0 65 287.830719)">0.6</text>
     </g>
    </g>
    <g id="ytick_3">
     <g id="line2d_24">
      <path d="M 72 232.074958 
L 518.4 232.074958 
" clip-path="url(#p9ce5612965)" style="fill: none; stroke: #e6e2da; stroke-width: 0.6; stroke-linecap: square"/>
     </g>
     <g id="line2d_25">
      <g>
       <use xlink:href="#m2f94e26b5d" x="72" y="232.074958" style="fill: #3a3a3a; stroke: #3a3a3a; stroke-width: 0.8"/>
      </g>
     </g>
     <g id="text_11">
      <text style="font-size: 11px; font-family: 'DejaVu Sans', 'Bitstream Vera Sans', 'Computer Modern Sans Serif', 'Lucida Grande', 'Verdana', 'Geneva', 'Lucid', 'Arial', 'Helvetica', 'Avant Garde', sans-serif; text-anchor: end; fill: #3a3a3a" x="65" y="236.253669" transform="rotate(-0 65 236.253669)">0.7</text>
     </g>
    </g>
    <g id="ytick_4">
     <g id="line2d_26">
      <path d="M 72 180.497907 
L 518.4 180.497907 
" clip-path="url(#p9ce5612965)" style="fill: none; stroke: #e6e2da; stroke-width: 0.6; stroke-linecap: square"/>
     </g>
     <g id="line2d_27">
      <g>
       <use xlink:href="#m2f94e26b5d" x="72" y="180.497907" style="fill: #3a3a3a; stroke: #3a3a3a; stroke-width: 0.8"/>
      </g>
     </g>
     <g id="text_12">
      <text style="font-size: 11px; font-family: 'DejaVu Sans', 'Bitstream Vera Sans', 'Computer Modern Sans Serif', 'Lucida Grande', 'Verdana', 'Geneva', 'Lucid', 'Arial', 'Helvetica', 'Avant Garde', sans-serif; text-anchor: end; fill: #3a3a3a" x="65" y="184.676618" transform="rotate(-0 65 184.676618)">0.8</text>
     </g>
    </g>
    <g id="ytick_5">
     <g id="line2d_28">
      <path d="M 72 128.920857 
L 518.4 128.920857 
" clip-path="url(#p9ce5612965)" style="fill: none; stroke: #e6e2da; stroke-width: 0.6; stroke-linecap: square"/>
     </g>
     <g id="line2d_29">
      <g>
       <use xlink:href="#m2f94e26b5d" x="72" y="128.920857" style="fill: #3a3a3a; stroke: #3a3a3a; stroke-width: 0.8"/>
      </g>
     </g>
     <g id="text_13">
      <text style="font-size: 11px; font-family: 'DejaVu Sans', 'Bitstream Vera Sans', 'Computer Modern Sans Serif', 'Lucida Grande', 'Verdana', 'Geneva', 'Lucid', 'Arial', 'Helvetica', 'Avant Garde', sans-serif; text-anchor: end; fill: #3a3a3a" x="65" y="133.099568" transform="rotate(-0 65 133.099568)">0.9</text>
     </g>
    </g>
    <g id="ytick_6">
     <g id="line2d_30">
      <path d="M 72 77.343807 
L 518.4 77.343807 
" clip-path="url(#p9ce5612965)" style="fill: none; stroke: #e6e2da; stroke-width: 0.6; stroke-linecap: square"/>
     </g>
     <g id="line2d_31">
      <g>
       <use xlink:href="#m2f94e26b5d" x="72" y="77.343807" style="fill: #3a3a3a; stroke: #3a3a3a; stroke-width: 0.8"/>
      </g>
     </g>
     <g id="text_14">
      <text style="font-size: 11px; font-family: 'DejaVu Sans', 'Bitstream Vera Sans', 'Computer Modern Sans Serif', 'Lucida Grande', 'Verdana', 'Geneva', 'Lucid', 'Arial', 'Helvetica', 'Avant Garde', sans-serif; text-anchor: end; fill: #3a3a3a" x="65" y="81.522518" transform="rotate(-0 65 81.522518)">1.0</text>
     </g>
    </g>
    <g id="text_15">
     <text style="font-size: 11px; font-family: 'DejaVu Sans', 'Bitstream Vera Sans', 'Computer Modern Sans Serif', 'Lucida Grande', 'Verdana', 'Geneva', 'Lucid', 'Arial', 'Helvetica', 'Avant Garde', sans-serif; text-anchor: middle; fill: #3a3a3a" x="40.863984" y="199.98" transform="rotate(-90 40.863984 199.98)">dominant-by-energy oscillatory frequency (Hz)</text>
    </g>
   </g>
   <g id="line2d_32">
    <path d="M 72 336.008946 
L 518.4 336.008946 
" clip-path="url(#p9ce5612965)" style="fill: none; stroke: #2a2a2a; stroke-width: 1.4; stroke-linecap: square"/>
   </g>
   <g id="line2d_33">
    <path d="M 169.85325 76.406145 
L 227.093732 334.858425 
L 299.208211 336.091009 
L 365.559751 336.16518 
L 434.100054 336.172779 
L 501.802536 336.169877 
" clip-path="url(#p9ce5612965)" style="fill: none; stroke: #4c9db0; stroke-width: 1.8; stroke-linecap: square"/>
    <defs>
     <path id="m220c8b05f4" d="M 0 3 
C 0.795609 3 1.55874 2.683901 2.12132 2.12132 
C 2.683901 1.55874 3 0.795609 3 0 
C 3 -0.795609 2.683901 -1.55874 2.12132 -2.12132 
C 1.55874 -2.683901 0.795609 -3 0 -3 
C -0.795609 -3 -1.55874 -2.683901 -2.12132 -2.12132 
C -2.683901 -1.55874 -3 -0.795609 -3 0 
C -3 0.795609 -2.683901 1.55874 -2.12132 2.12132 
C -1.55874 2.683901 -0.795609 3 0 3 
z
" style="stroke: #4c9db0"/>
    </defs>
    <g clip-path="url(#p9ce5612965)">
     <use xlink:href="#m220c8b05f4" x="169.85325" y="76.406145" style="fill: #4c9db0; stroke: #4c9db0"/>
     <use xlink:href="#m220c8b05f4" x="227.093732" y="334.858425" style="fill: #4c9db0; stroke: #4c9db0"/>
     <use xlink:href="#m220c8b05f4" x="299.208211" y="336.091009" style="fill: #4c9db0; stroke: #4c9db0"/>
     <use xlink:href="#m220c8b05f4" x="365.559751" y="336.16518" style="fill: #4c9db0; stroke: #4c9db0"/>
     <use xlink:href="#m220c8b05f4" x="434.100054" y="336.172779" style="fill: #4c9db0; stroke: #4c9db0"/>
     <use xlink:href="#m220c8b05f4" x="501.802536" y="336.169877" style="fill: #4c9db0; stroke: #4c9db0"/>
    </g>
   </g>
   <g id="line2d_34">
    <path d="M 169.85325 74.253704 
L 227.093732 334.631201 
L 299.208211 335.871887 
L 365.559751 336.167358 
L 434.100054 336.169925 
L 501.802536 336.169719 
" clip-path="url(#p9ce5612965)" style="fill: none; stroke: #d99a2b; stroke-width: 1.8; stroke-linecap: square"/>
    <defs>
     <path id="m5aebbd0a86" d="M 0 3 
C 0.795609 3 1.55874 2.683901 2.12132 2.12132 
C 2.683901 1.55874 3 0.795609 3 0 
C 3 -0.795609 2.683901 -1.55874 2.12132 -2.12132 
C 1.55874 -2.683901 0.795609 -3 0 -3 
C -0.795609 -3 -1.55874 -2.683901 -2.12132 -2.12132 
C -2.683901 -1.55874 -3 -0.795609 -3 0 
C -3 0.795609 -2.683901 1.55874 -2.12132 2.12132 
C -1.55874 2.683901 -0.795609 3 0 3 
z
" style="stroke: #d99a2b"/>
    </defs>
    <g clip-path="url(#p9ce5612965)">
     <use xlink:href="#m5aebbd0a86" x="169.85325" y="74.253704" style="fill: #d99a2b; stroke: #d99a2b"/>
     <use xlink:href="#m5aebbd0a86" x="227.093732" y="334.631201" style="fill: #d99a2b; stroke: #d99a2b"/>
     <use xlink:href="#m5aebbd0a86" x="299.208211" y="335.871887" style="fill: #d99a2b; stroke: #d99a2b"/>
     <use xlink:href="#m5aebbd0a86" x="365.559751" y="336.167358" style="fill: #d99a2b; stroke: #d99a2b"/>
     <use xlink:href="#m5aebbd0a86" x="434.100054" y="336.169925" style="fill: #d99a2b; stroke: #d99a2b"/>
     <use xlink:href="#m5aebbd0a86" x="501.802536" y="336.169719" style="fill: #d99a2b; stroke: #d99a2b"/>
    </g>
   </g>
   <g id="line2d_35">
    <path d="M 169.85325 61.38 
L 227.093732 335.32366 
L 299.208211 335.999884 
L 365.559751 336.141625 
L 434.100054 336.168951 
L 501.802536 336.169725 
" clip-path="url(#p9ce5612965)" style="fill: none; stroke: #8bbf7a; stroke-width: 1.8; stroke-linecap: square"/>
    <defs>
     <path id="ma54b523ca7" d="M 0 3 
C 0.795609 3 1.55874 2.683901 2.12132 2.12132 
C 2.683901 1.55874 3 0.795609 3 0 
C 3 -0.795609 2.683901 -1.55874 2.12132 -2.12132 
C 1.55874 -2.683901 0.795609 -3 0 -3 
C -0.795609 -3 -1.55874 -2.683901 -2.12132 -2.12132 
C -2.683901 -1.55874 -3 -0.795609 -3 0 
C -3 0.795609 -2.683901 1.55874 -2.12132 2.12132 
C -1.55874 2.683901 -0.795609 3 0 3 
z
" style="stroke: #8bbf7a"/>
    </defs>
    <g clip-path="url(#p9ce5612965)">
     <use xlink:href="#ma54b523ca7" x="169.85325" y="61.38" style="fill: #8bbf7a; stroke: #8bbf7a"/>
     <use xlink:href="#ma54b523ca7" x="227.093732" y="335.32366" style="fill: #8bbf7a; stroke: #8bbf7a"/>
     <use xlink:href="#ma54b523ca7" x="299.208211" y="335.999884" style="fill: #8bbf7a; stroke: #8bbf7a"/>
     <use xlink:href="#ma54b523ca7" x="365.559751" y="336.141625" style="fill: #8bbf7a; stroke: #8bbf7a"/>
     <use xlink:href="#ma54b523ca7" x="434.100054" y="336.168951" style="fill: #8bbf7a; stroke: #8bbf7a"/>
     <use xlink:href="#ma54b523ca7" x="501.802536" y="336.169725" style="fill: #8bbf7a; stroke: #8bbf7a"/>
    </g>
   </g>
   <g id="line2d_36">
    <path d="M 169.85325 316.399249 
L 227.093732 331.379668 
L 299.208211 335.273075 
L 365.559751 336.102175 
L 434.100054 336.166718 
L 501.802536 336.168154 
" clip-path="url(#p9ce5612965)" style="fill: none; stroke: #8e3b6e; stroke-width: 1.8; stroke-linecap: square"/>
    <defs>
     <path id="m6eabba2cf2" d="M 0 3 
C 0.795609 3 1.55874 2.683901 2.12132 2.12132 
C 2.683901 1.55874 3 0.795609 3 0 
C 3 -0.795609 2.683901 -1.55874 2.12132 -2.12132 
C 1.55874 -2.683901 0.795609 -3 0 -3 
C -0.795609 -3 -1.55874 -2.683901 -2.12132 -2.12132 
C -2.683901 -1.55874 -3 -0.795609 -3 0 
C -3 0.795609 -2.683901 1.55874 -2.12132 2.12132 
C -1.55874 2.683901 -0.795609 3 0 3 
z
" style="stroke: #8e3b6e"/>
    </defs>
    <g clip-path="url(#p9ce5612965)">
     <use xlink:href="#m6eabba2cf2" x="169.85325" y="316.399249" style="fill: #8e3b6e; stroke: #8e3b6e"/>
     <use xlink:href="#m6eabba2cf2" x="227.093732" y="331.379668" style="fill: #8e3b6e; stroke: #8e3b6e"/>
     <use xlink:href="#m6eabba2cf2" x="299.208211" y="335.273075" style="fill: #8e3b6e; stroke: #8e3b6e"/>
     <use xlink:href="#m6eabba2cf2" x="365.559751" y="336.102175" style="fill: #8e3b6e; stroke: #8e3b6e"/>
     <use xlink:href="#m6eabba2cf2" x="434.100054" y="336.166718" style="fill: #8e3b6e; stroke: #8e3b6e"/>
     <use xlink:href="#m6eabba2cf2" x="501.802536" y="336.168154" style="fill: #8e3b6e; stroke: #8e3b6e"/>
    </g>
   </g>
   <g id="line2d_37">
    <path d="M 169.85325 327.769365 
L 227.093732 335.444557 
L 299.208211 335.831563 
L 365.559751 336.158498 
L 434.100054 336.170142 
L 501.802536 336.169894 
" clip-path="url(#p9ce5612965)" style="fill: none; stroke: #5a6b8c; stroke-width: 1.8; stroke-linecap: square"/>
    <defs>
     <path id="mc722c20788" d="M 0 3 
C 0.795609 3 1.55874 2.683901 2.12132 2.12132 
C 2.683901 1.55874 3 0.795609 3 0 
C 3 -0.795609 2.683901 -1.55874 2.12132 -2.12132 
C 1.55874 -2.683901 0.795609 -3 0 -3 
C -0.795609 -3 -1.55874 -2.683901 -2.12132 -2.12132 
C -2.683901 -1.55874 -3 -0.795609 -3 0 
C -3 0.795609 -2.683901 1.55874 -2.12132 2.12132 
C -1.55874 2.683901 -0.795609 3 0 3 
z
" style="stroke: #5a6b8c"/>
    </defs>
    <g clip-path="url(#p9ce5612965)">
     <use xlink:href="#mc722c20788" x="169.85325" y="327.769365" style="fill: #5a6b8c; stroke: #5a6b8c"/>
     <use xlink:href="#mc722c20788" x="227.093732" y="335.444557" style="fill: #5a6b8c; stroke: #5a6b8c"/>
     <use xlink:href="#mc722c20788" x="299.208211" y="335.831563" style="fill: #5a6b8c; stroke: #5a6b8c"/>
     <use xlink:href="#mc722c20788" x="365.559751" y="336.158498" style="fill: #5a6b8c; stroke: #5a6b8c"/>
     <use xlink:href="#mc722c20788" x="434.100054" y="336.170142" style="fill: #5a6b8c; stroke: #5a6b8c"/>
     <use xlink:href="#mc722c20788" x="501.802536" y="336.169894" style="fill: #5a6b8c; stroke: #5a6b8c"/>
    </g>
   </g>
   <g id="patch_4">
    <path d="M 72 352.44 
L 72 47.52 
" style="fill: none; stroke: #3a3a3a; stroke-width: 0.8; stroke-linejoin: miter; stroke-linecap: square"/>
   </g>
   <g id="patch_5">
    <path d="M 72 352.44 
L 518.4 352.44 
" style="fill: none; stroke: #3a3a3a; stroke-width: 0.8; stroke-linejoin: miter; stroke-linecap: square"/>
   </g>
   <g id="text_16">
    <text style="font-weight: 700; font-size: 13px; font-family: 'DejaVu Sans', 'Bitstream Vera Sans', 'Computer Modern Sans Serif', 'Lucida Grande', 'Verdana', 'Geneva', 'Lucid', 'Arial', 'Helvetica', 'Avant Garde', sans-serif; text-anchor: start; fill: #2a2a2a" x="72" y="41.52" transform="rotate(-0 72 41.52)">Extension 6 (frame-pair encoder): recovered frequency vs. delay, q=1 included as a first-class test</text>
   </g>
   <g id="legend_1">
    <g id="patch_6">
     <path d="M 403.545 60.79875 
L 419.545 60.79875 
L 419.545 55.19875 
L 403.545 55.19875 
z
" style="fill: #8e3b6e; opacity: 0.12; stroke: #8e3b6e; stroke-linejoin: miter"/>
    </g>
    <g id="text_17">
     <text style="font-size: 8px; font-family: 'DejaVu Sans', 'Bitstream Vera Sans', 'Computer Modern Sans Serif', 'Lucida Grande', 'Verdana', 'Geneva', 'Lucid', 'Arial', 'Helvetica', 'Avant Garde', sans-serif; text-anchor: start; fill: #2a2a2a" x="425.945" y="60.79875" transform="rotate(-0 425.945 60.79875)">+-1% tolerance band</text>
    </g>
    <g id="line2d_38">
     <path d="M 403.545 69.999375 
L 411.545 69.999375 
L 419.545 69.999375 
" style="fill: none; stroke: #2a2a2a; stroke-width: 1.4; stroke-linecap: square"/>
    </g>
    <g id="text_18">
     <text style="font-size: 8px; font-family: 'DejaVu Sans', 'Bitstream Vera Sans', 'Computer Modern Sans Serif', 'Lucida Grande', 'Verdana', 'Geneva', 'Lucid', 'Arial', 'Helvetica', 'Avant Garde', sans-serif; text-anchor: start; fill: #2a2a2a" x="425.945" y="72.799375" transform="rotate(-0 425.945 72.799375)">f0 = 0.49849 Hz</text>
    </g>
    <g id="line2d_39">
     <path d="M 403.545 82 
L 411.545 82 
L 419.545 82 
" style="fill: none; stroke: #4c9db0; stroke-width: 1.8; stroke-linecap: square"/>
     <g>
      <use xlink:href="#m220c8b05f4" x="411.545" y="82" style="fill: #4c9db0; stroke: #4c9db0"/>
     </g>
    </g>
    <g id="text_19">
     <text style="font-size: 8px; font-family: 'DejaVu Sans', 'Bitstream Vera Sans', 'Computer Modern Sans Serif', 'Lucida Grande', 'Verdana', 'Geneva', 'Lucid', 'Arial', 'Helvetica', 'Avant Garde', sans-serif; text-anchor: start; fill: #2a2a2a" x="425.945" y="84.8" transform="rotate(-0 425.945 84.8)">seed 0</text>
    </g>
    <g id="line2d_40">
     <path d="M 403.545 94.000625 
L 411.545 94.000625 
L 419.545 94.000625 
" style="fill: none; stroke: #d99a2b; stroke-width: 1.8; stroke-linecap: square"/>
     <g>
      <use xlink:href="#m5aebbd0a86" x="411.545" y="94.000625" style="fill: #d99a2b; stroke: #d99a2b"/>
     </g>
    </g>
    <g id="text_20">
     <text style="font-size: 8px; font-family: 'DejaVu Sans', 'Bitstream Vera Sans', 'Computer Modern Sans Serif', 'Lucida Grande', 'Verdana', 'Geneva', 'Lucid', 'Arial', 'Helvetica', 'Avant Garde', sans-serif; text-anchor: start; fill: #2a2a2a" x="425.945" y="96.800625" transform="rotate(-0 425.945 96.800625)">seed 1</text>
    </g>
    <g id="line2d_41">
     <path d="M 403.545 106.00125 
L 411.545 106.00125 
L 419.545 106.00125 
" style="fill: none; stroke: #8bbf7a; stroke-width: 1.8; stroke-linecap: square"/>
     <g>
      <use xlink:href="#ma54b523ca7" x="411.545" y="106.00125" style="fill: #8bbf7a; stroke: #8bbf7a"/>
     </g>
    </g>
    <g id="text_21">
     <text style="font-size: 8px; font-family: 'DejaVu Sans', 'Bitstream Vera Sans', 'Computer Modern Sans Serif', 'Lucida Grande', 'Verdana', 'Geneva', 'Lucid', 'Arial', 'Helvetica', 'Avant Garde', sans-serif; text-anchor: start; fill: #2a2a2a" x="425.945" y="108.80125" transform="rotate(-0 425.945 108.80125)">seed 2</text>
    </g>
    <g id="line2d_42">
     <path d="M 403.545 118.001875 
L 411.545 118.001875 
L 419.545 118.001875 
" style="fill: none; stroke: #8e3b6e; stroke-width: 1.8; stroke-linecap: square"/>
     <g>
      <use xlink:href="#m6eabba2cf2" x="411.545" y="118.001875" style="fill: #8e3b6e; stroke: #8e3b6e"/>
     </g>
    </g>
    <g id="text_22">
     <text style="font-size: 8px; font-family: 'DejaVu Sans', 'Bitstream Vera Sans', 'Computer Modern Sans Serif', 'Lucida Grande', 'Verdana', 'Geneva', 'Lucid', 'Arial', 'Helvetica', 'Avant Garde', sans-serif; text-anchor: start; fill: #2a2a2a" x="425.945" y="120.801875" transform="rotate(-0 425.945 120.801875)">seed 3</text>
    </g>
    <g id="line2d_43">
     <path d="M 403.545 130.0025 
L 411.545 130.0025 
L 419.545 130.0025 
" style="fill: none; stroke: #5a6b8c; stroke-width: 1.8; stroke-linecap: square"/>
     <g>
      <use xlink:href="#mc722c20788" x="411.545" y="130.0025" style="fill: #5a6b8c; stroke: #5a6b8c"/>
     </g>
    </g>
    <g id="text_23">
     <text style="font-size: 8px; font-family: 'DejaVu Sans', 'Bitstream Vera Sans', 'Computer Modern Sans Serif', 'Lucida Grande', 'Verdana', 'Geneva', 'Lucid', 'Arial', 'Helvetica', 'Avant Garde', sans-serif; text-anchor: start; fill: #2a2a2a" x="425.945" y="132.8025" transform="rotate(-0 425.945 132.8025)">seed 4</text>
    </g>
   </g>
  </g>
 </g>
 <defs>
  <clipPath id="p9ce5612965">
   <rect x="72" y="47.52" width="446.4" height="304.92"/>
  </clipPath>
 </defs>
</svg>
