<?xml version="1.0" encoding="utf-8" standalone="no"?>
<!DOCTYPE svg PUBLIC "-//W3C//DTD SVG 1.1//EN"
  "http://www.w3.org/Graphics/SVG/1.1/DTD/svg11.dtd">
<svg xmlns:xlink="http://www.w3.org/1999/xlink" width="648pt" height="360pt" viewBox="0 0 648 360" xmlns="http://www.w3.org/2000/svg" version="1.1">
 <metadata>
  <rdf:RDF xmlns:dc="http://purl.org/dc/elements/1.1/" xmlns:cc="http://creativecommons.org/ns#" xmlns:rdf="http://www.w3.org/1999/02/22-rdf-syntax-ns#">
   <cc:Work>
    <dc:type rdf:resource="http://purl.org/dc/dcmitype/StillImage"/>
    <dc:date>2026-07-16T16:29:38.495294</dc:date>
    <dc:format>image/svg+xml</dc:format>
    <dc:creator>
     <cc:Agent>
      <dc:title>Matplotlib v3.11.0, https://matplotlib.org/</dc:title>
     </cc:Agent>
    </dc:creator>
   </cc:Work>
  </rdf:RDF>
 </metadata>
 <defs>
  <style type="text/css">*{stroke-linejoin: round; stroke-linecap: butt}</style>
 </defs>
 <g id="figure_1">
  <g id="patch_1">
   <path d="M 0 360 
L 648 360 
L 648 0 
L 0 0 
z
" style="fill: #ffffff"/>
  </g>
  <g id="axes_1">
   <g id="patch_2">
    <path d="M 81 320.4 
L 583.2 320.4 
L 583.2 43.2 
L 81 43.2 
z
" style="fill: #ffffff"/>
   </g>
   <g id="patch_3">
    <path d="M 103.827273 320.4 
L 108.369574 320.4 
L 108.369574 43.2 
L 103.827273 43.2 
z
" clip-path="url(#pe27f3b26f8)" style="fill: #8e3b6e; opacity: 0.12; stroke: #8e3b6e; stroke-linejoin: miter"/>
   </g>
   <g id="matplotlib.axis_1">
    <g id="xtick_1">
     <g id="line2d_1">
      <path d="M 156.681656 320.4 
L 156.681656 43.2 
" clip-path="url(#pe27f3b26f8)" style="fill: none; stroke: #e6e2da; stroke-width: 0.6; stroke-linecap: square"/>
     </g>
     <g id="line2d_2">
      <defs>
       <path id="mf4754d0e06" d="M 0 0 
L 0 3.5 
" style="stroke: #3a3a3a; stroke-width: 0.8"/>
      </defs>
      <g>
       <use xlink:href="#mf4754d0e06" x="156.681656" y="320.4" style="fill: #3a3a3a; stroke: #3a3a3a; stroke-width: 0.8"/>
      </g>
     </g>
     <g id="text_1">
      <text style="font-size: 11px; font-family: 'DejaVu Sans', 'Bitstream Vera Sans', 'Computer Modern Sans Serif', 'Lucida Grande', 'Verdana', 'Geneva', 'Lucid', 'Arial', 'Helvetica', 'Avant Garde', sans-serif; text-anchor: middle; fill: #3a3a3a" x="156.681656" y="335.757422" transform="rotate(-0 156.681656 335.757422)">0.6</text>
     </g>
    </g>
    <g id="xtick_2">
     <g id="line2d_3">
      <path d="M 249.247748 320.4 
L 249.247748 43.2 
" clip-path="url(#pe27f3b26f8)" style="fill: none; stroke: #e6e2da; stroke-width: 0.6; stroke-linecap: square"/>
     </g>
     <g id="line2d_4">
      <g>
       <use xlink:href="#mf4754d0e06" x="249.247748" y="320.4" style="fill: #3a3a3a; stroke: #3a3a3a; stroke-width: 0.8"/>
      </g>
     </g>
     <g id="text_2">
      <text style="font-size: 11px; font-family: 'DejaVu Sans', 'Bitstream Vera Sans', 'Computer Modern Sans Serif', 'Lucida Grande', 'Verdana', 'Geneva', 'Lucid', 'Arial', 'Helvetica', 'Avant Garde', sans-serif; text-anchor: middle; fill: #3a3a3a" x="249.247748" y="335.757422" transform="rotate(-0 249.247748 335.757422)">0.8</text>
     </g>
    </g>
    <g id="xtick_3">
     <g id="line2d_5">
      <path d="M 341.81384 320.4 
L 341.81384 43.2 
" clip-path="url(#pe27f3b26f8)" style="fill: none; stroke: #e6e2da; stroke-width: 0.6; stroke-linecap: square"/>
     </g>
     <g id="line2d_6">
      <g>
       <use xlink:href="#mf4754d0e06" x="341.81384" y="320.4" style="fill: #3a3a3a; stroke: #3a3a3a; stroke-width: 0.8"/>
      </g>
     </g>
     <g id="text_3">
      <text style="font-size: 11px; font-family: 'DejaVu Sans', 'Bitstream Vera Sans', 'Computer Modern Sans Serif', 'Lucida Grande', 'Verdana', 'Geneva', 'Lucid', 'Arial', 'Helvetica', 'Avant Garde', sans-serif; text-anchor: middle; fill: #3a3a3a" x="341.81384" y="335.757422" transform="rotate(-0 341.81384 335.757422)">1.0</text>
     </g>
    </g>
    <g id="xtick_4">
     <g id="line2d_7">
      <path d="M 434.379932 320.4 
L 434.379932 43.2 
" clip-path="url(#pe27f3b26f8)" style="fill: none; stroke: #e6e2da; stroke-width: 0.6; stroke-linecap: square"/>
     </g>
     <g id="line2d_8">
      <g>
       <use xlink:href="#mf4754d0e06" x="434.379932" y="320.4" style="fill: #3a3a3a; stroke: #3a3a3a; stroke-width: 0.8"/>
      </g>
     </g>
     <g id="text_4">
      <text style="font-size: 11px; font-family: 'DejaVu Sans', 'Bitstream Vera Sans', 'Computer Modern Sans Serif', 'Lucida Grande', 'Verdana', 'Geneva', 'Lucid', 'Arial', 'Helvetica', 'Avant Garde', sans-serif; text-anchor: middle; fill: #3a3a3a" x="434.379932" y="335.757422" transform="rotate(-0 434.379932 335.757422)">1.2</text>
     </g>
    </g>
    <g id="xtick_5">
     <g id="line2d_9">
      <path d="M 526.946025 320.4 
L 526.946025 43.2 
" clip-path="url(#pe27f3b26f8)" style="fill: none; stroke: #e6e2da; stroke-width: 0.6; stroke-linecap: square"/>
     </g>
     <g id="line2d_10">
      <g>
       <use xlink:href="#mf4754d0e06" x="526.946025" y="320.4" style="fill: #3a3a3a; stroke: #3a3a3a; stroke-width: 0.8"/>
      </g>
     </g>
     <g id="text_5">
      <text style="font-size: 11px; font-family: 'DejaVu Sans', 'Bitstream Vera Sans', 'Computer Modern Sans Serif', 'Lucida Grande', 'Verdana', 'Geneva', 'Lucid', 'Arial', 'Helvetica', 'Avant Garde', sans-serif; text-anchor: middle; fill: #3a3a3a" x="526.946025" y="335.757422" transform="rotate(-0 526.946025 335.757422)">1.4</text>
     </g>
    </g>
    <g id="text_6">
     <text style="font-size: 11px; font-family: 'DejaVu Sans', 'Bitstream Vera Sans', 'Computer Modern Sans Serif', 'Lucida Grande', 'Verdana', 'Geneva', 'Lucid', 'Arial', 'Helvetica', 'Avant Garde', sans-serif; text-anchor: middle; fill: #3a3a3a" x="332.1" y="350.758281" transform="rotate(-0 332.1 350.758281)">recovered frequency (Hz) at q=13, BOP-DMD point estimate +- 95% CI</text>
    </g>
   </g>
   <g id="matplotlib.axis_2">
    <g id="ytick_1">
     <g id="line2d_11">
      <path d="M 81 307.8 
L 583.2 307.8 
" clip-path="url(#pe27f3b26f8)" style="fill: none; stroke: #e6e2da; stroke-width: 0.6; stroke-linecap: square"/>
     </g>
     <g id="line2d_12">
      <defs>
       <path id="m644b204515" d="M 0 0 
L -3.5 0 
" style="stroke: #3a3a3a; stroke-width: 0.8"/>
      </defs>
      <g>
       <use xlink:href="#m644b204515" x="81" y="307.8" style="fill: #3a3a3a; stroke: #3a3a3a; stroke-width: 0.8"/>
      </g>
     </g>
     <g id="text_7">
      <text style="font-size: 11px; font-family: 'DejaVu Sans', 'Bitstream Vera Sans', 'Computer Modern Sans Serif', 'Lucida Grande', 'Verdana', 'Geneva', 'Lucid', 'Arial', 'Helvetica', 'Avant Garde', sans-serif; text-anchor: end; fill: #3a3a3a" x="74" y="311.979141" transform="rotate(-0 74 311.979141)">seed 0</text>
     </g>
    </g>
    <g id="ytick_2">
     <g id="line2d_13">
      <path d="M 81 244.8 
L 583.2 244.8 
" clip-path="url(#pe27f3b26f8)" style="fill: none; stroke: #e6e2da; stroke-width: 0.6; stroke-linecap: square"/>
     </g>
     <g id="line2d_14">
      <g>
       <use xlink:href="#m644b204515" x="81" y="244.8" style="fill: #3a3a3a; stroke: #3a3a3a; stroke-width: 0.8"/>
      </g>
     </g>
     <g id="text_8">
      <text style="font-size: 11px; font-family: 'DejaVu Sans', 'Bitstream Vera Sans', 'Computer Modern Sans Serif', 'Lucida Grande', 'Verdana', 'Geneva', 'Lucid', 'Arial', 'Helvetica', 'Avant Garde', sans-serif; text-anchor: end; fill: #3a3a3a" x="74" y="248.979141" transform="rotate(-0 74 248.979141)">seed 1</text>
     </g>
    </g>
    <g id="ytick_3">
     <g id="line2d_15">
      <path d="M 81 181.8 
L 583.2 181.8 
" clip-path="url(#pe27f3b26f8)" style="fill: none; stroke: #e6e2da; stroke-width: 0.6; stroke-linecap: square"/>
     </g>
     <g id="line2d_16">
      <g>
       <use xlink:href="#m644b204515" x="81" y="181.8" style="fill: #3a3a3a; stroke: #3a3a3a; stroke-width: 0.8"/>
      </g>
     </g>
     <g id="text_9">
      <text style="font-size: 11px; font-family: 'DejaVu Sans', 'Bitstream Vera Sans', 'Computer Modern Sans Serif', 'Lucida Grande', 'Verdana', 'Geneva', 'Lucid', 'Arial', 'Helvetica', 'Avant Garde', sans-serif; text-anchor: end; fill: #3a3a3a" x="74" y="185.979141" transform="rotate(-0 74 185.979141)">seed 2</text>
     </g>
    </g>
    <g id="ytick_4">
     <g id="line2d_17">
      <path d="M 81 118.8 
L 583.2 118.8 
" clip-path="url(#pe27f3b26f8)" style="fill: none; stroke: #e6e2da; stroke-width: 0.6; stroke-linecap: square"/>
     </g>
     <g id="line2d_18">
      <g>
       <use xlink:href="#m644b204515" x="81" y="118.8" style="fill: #3a3a3a; stroke: #3a3a3a; stroke-width: 0.8"/>
      </g>
     </g>
     <g id="text_10">
      <text style="font-size: 11px; font-family: 'DejaVu Sans', 'Bitstream Vera Sans', 'Computer Modern Sans Serif', 'Lucida Grande', 'Verdana', 'Geneva', 'Lucid', 'Arial', 'Helvetica', 'Avant Garde', sans-serif; text-anchor: end; fill: #3a3a3a" x="74" y="122.979141" transform="rotate(-0 74 122.979141)">seed 3</text>
     </g>
    </g>
    <g id="ytick_5">
     <g id="line2d_19">
      <path d="M 81 55.8 
L 583.2 55.8 
" clip-path="url(#pe27f3b26f8)" style="fill: none; stroke: #e6e2da; stroke-width: 0.6; stroke-linecap: square"/>
     </g>
     <g id="line2d_20">
      <g>
       <use xlink:href="#m644b204515" x="81" y="55.8" style="fill: #3a3a3a; stroke: #3a3a3a; stroke-width: 0.8"/>
      </g>
     </g>
     <g id="text_11">
      <text style="font-size: 11px; font-family: 'DejaVu Sans', 'Bitstream Vera Sans', 'Computer Modern Sans Serif', 'Lucida Grande', 'Verdana', 'Geneva', 'Lucid', 'Arial', 'Helvetica', 'Avant Garde', sans-serif; text-anchor: end; fill: #3a3a3a" x="74" y="59.979141" transform="rotate(-0 74 59.979141)">seed 4</text>
     </g>
    </g>
   </g>
   <g id="line2d_21">
    <path d="M 106.098423 320.4 
L 106.098423 43.2 
" clip-path="url(#pe27f3b26f8)" style="fill: none; stroke: #2a2a2a; stroke-width: 1.4; stroke-linecap: square"/>
   </g>
   <g id="LineCollection_1">
    <path d="M 333.180373 307.8 
L 333.24665 307.8 
" clip-path="url(#pe27f3b26f8)" style="fill: none; stroke: #4c9db0; stroke-width: 1.6"/>
   </g>
   <g id="line2d_22">
    <defs>
     <path id="m480c643361" d="M 0 4 
L 0 -4 
" style="stroke: #4c9db0"/>
    </defs>
    <g clip-path="url(#pe27f3b26f8)">
     <use xlink:href="#m480c643361" x="333.180373" y="307.8" style="fill: #4c9db0; stroke: #4c9db0"/>
    </g>
   </g>
   <g id="line2d_23">
    <g clip-path="url(#pe27f3b26f8)">
     <use xlink:href="#m480c643361" x="333.24665" y="307.8" style="fill: #4c9db0; stroke: #4c9db0"/>
    </g>
   </g>
   <g id="LineCollection_2">
    <path d="M 333.157411 244.8 
L 333.270038 244.8 
" clip-path="url(#pe27f3b26f8)" style="fill: none; stroke: #d99a2b; stroke-width: 1.6"/>
   </g>
   <g id="line2d_24">
    <defs>
     <path id="md91e1614c8" d="M 0 4 
L 0 -4 
" style="stroke: #d99a2b"/>
    </defs>
    <g clip-path="url(#pe27f3b26f8)">
     <use xlink:href="#md91e1614c8" x="333.157411" y="244.8" style="fill: #d99a2b; stroke: #d99a2b"/>
    </g>
   </g>
   <g id="line2d_25">
    <g clip-path="url(#pe27f3b26f8)">
     <use xlink:href="#md91e1614c8" x="333.270038" y="244.8" style="fill: #d99a2b; stroke: #d99a2b"/>
    </g>
   </g>
   <g id="LineCollection_3">
    <path d="M 333.188192 181.8 
L 333.2388 181.8 
" clip-path="url(#pe27f3b26f8)" style="fill: none; stroke: #8bbf7a; stroke-width: 1.6"/>
   </g>
   <g id="line2d_26">
    <defs>
     <path id="mca92a1ed48" d="M 0 4 
L 0 -4 
" style="stroke: #8bbf7a"/>
    </defs>
    <g clip-path="url(#pe27f3b26f8)">
     <use xlink:href="#mca92a1ed48" x="333.188192" y="181.8" style="fill: #8bbf7a; stroke: #8bbf7a"/>
    </g>
   </g>
   <g id="line2d_27">
    <g clip-path="url(#pe27f3b26f8)">
     <use xlink:href="#mca92a1ed48" x="333.2388" y="181.8" style="fill: #8bbf7a; stroke: #8bbf7a"/>
    </g>
   </g>
   <g id="LineCollection_4">
    <path d="M 560.284348 118.8 
L 560.372727 118.8 
" clip-path="url(#pe27f3b26f8)" style="fill: none; stroke: #8e3b6e; stroke-width: 1.6"/>
   </g>
   <g id="line2d_28">
    <defs>
     <path id="m84c6ba637c" d="M 0 4 
L 0 -4 
" style="stroke: #8e3b6e"/>
    </defs>
    <g clip-path="url(#pe27f3b26f8)">
     <use xlink:href="#m84c6ba637c" x="560.284348" y="118.8" style="fill: #8e3b6e; stroke: #8e3b6e"/>
    </g>
   </g>
   <g id="line2d_29">
    <g clip-path="url(#pe27f3b26f8)">
     <use xlink:href="#m84c6ba637c" x="560.372727" y="118.8" style="fill: #8e3b6e; stroke: #8e3b6e"/>
    </g>
   </g>
   <g id="LineCollection_5">
    <path d="M 333.139571 55.8 
L 333.287326 55.8 
" clip-path="url(#pe27f3b26f8)" style="fill: none; stroke: #5a6b8c; stroke-width: 1.6"/>
   </g>
   <g id="line2d_30">
    <defs>
     <path id="me751538d1a" d="M 0 4 
L 0 -4 
" style="stroke: #5a6b8c"/>
    </defs>
    <g clip-path="url(#pe27f3b26f8)">
     <use xlink:href="#me751538d1a" x="333.139571" y="55.8" style="fill: #5a6b8c; stroke: #5a6b8c"/>
    </g>
   </g>
   <g id="line2d_31">
    <g clip-path="url(#pe27f3b26f8)">
     <use xlink:href="#me751538d1a" x="333.287326" y="55.8" style="fill: #5a6b8c; stroke: #5a6b8c"/>
    </g>
   </g>
   <g id="line2d_32">
    <defs>
     <path id="m0ae16d1cbb" d="M 0 3.5 
C 0.928211 3.5 1.81853 3.131218 2.474874 2.474874 
C 3.131218 1.81853 3.5 0.928211 3.5 0 
C 3.5 -0.928211 3.131218 -1.81853 2.474874 -2.474874 
C 1.81853 -3.131218 0.928211 -3.5 0 -3.5 
C -0.928211 -3.5 -1.81853 -3.131218 -2.474874 -2.474874 
C -3.131218 -1.81853 -3.5 -0.928211 -3.5 0 
C -3.5 0.928211 -3.131218 1.81853 -2.474874 2.474874 
C -1.81853 3.131218 -0.928211 3.5 0 3.5 
z
" style="stroke: #4c9db0"/>
    </defs>
    <g clip-path="url(#pe27f3b26f8)">
     <use xlink:href="#m0ae16d1cbb" x="333.213511" y="307.8" style="fill: #4c9db0; stroke: #4c9db0"/>
    </g>
   </g>
   <g id="line2d_33">
    <defs>
     <path id="mc0e5259366" d="M 0 3.5 
C 0.928211 3.5 1.81853 3.131218 2.474874 2.474874 
C 3.131218 1.81853 3.5 0.928211 3.5 0 
C 3.5 -0.928211 3.131218 -1.81853 2.474874 -2.474874 
C 1.81853 -3.131218 0.928211 -3.5 0 -3.5 
C -0.928211 -3.5 -1.81853 -3.131218 -2.474874 -2.474874 
C -3.131218 -1.81853 -3.5 -0.928211 -3.5 0 
C -3.5 0.928211 -3.131218 1.81853 -2.474874 2.474874 
C -1.81853 3.131218 -0.928211 3.5 0 3.5 
z
" style="stroke: #d99a2b"/>
    </defs>
    <g clip-path="url(#pe27f3b26f8)">
     <use xlink:href="#mc0e5259366" x="333.213724" y="244.8" style="fill: #d99a2b; stroke: #d99a2b"/>
    </g>
   </g>
   <g id="line2d_34">
    <defs>
     <path id="m1fce75e3fa" d="M 0 3.5 
C 0.928211 3.5 1.81853 3.131218 2.474874 2.474874 
C 3.131218 1.81853 3.5 0.928211 3.5 0 
C 3.5 -0.928211 3.131218 -1.81853 2.474874 -2.474874 
C 1.81853 -3.131218 0.928211 -3.5 0 -3.5 
C -0.928211 -3.5 -1.81853 -3.131218 -2.474874 -2.474874 
C -3.131218 -1.81853 -3.5 -0.928211 -3.5 0 
C -3.5 0.928211 -3.131218 1.81853 -2.474874 2.474874 
C -1.81853 3.131218 -0.928211 3.5 0 3.5 
z
" style="stroke: #8bbf7a"/>
    </defs>
    <g clip-path="url(#pe27f3b26f8)">
     <use xlink:href="#m1fce75e3fa" x="333.213496" y="181.8" style="fill: #8bbf7a; stroke: #8bbf7a"/>
    </g>
   </g>
   <g id="line2d_35">
    <defs>
     <path id="m3919521cf4" d="M 0 3.5 
C 0.928211 3.5 1.81853 3.131218 2.474874 2.474874 
C 3.131218 1.81853 3.5 0.928211 3.5 0 
C 3.5 -0.928211 3.131218 -1.81853 2.474874 -2.474874 
C 1.81853 -3.131218 0.928211 -3.5 0 -3.5 
C -0.928211 -3.5 -1.81853 -3.131218 -2.474874 -2.474874 
C -3.131218 -1.81853 -3.5 -0.928211 -3.5 0 
C -3.5 0.928211 -3.131218 1.81853 -2.474874 2.474874 
C -1.81853 3.131218 -0.928211 3.5 0 3.5 
z
" style="stroke: #8e3b6e"/>
    </defs>
    <g clip-path="url(#pe27f3b26f8)">
     <use xlink:href="#m3919521cf4" x="560.328538" y="118.8" style="fill: #8e3b6e; stroke: #8e3b6e"/>
    </g>
   </g>
   <g id="line2d_36">
    <defs>
     <path id="mb56b8676cb" d="M 0 3.5 
C 0.928211 3.5 1.81853 3.131218 2.474874 2.474874 
C 3.131218 1.81853 3.5 0.928211 3.5 0 
C 3.5 -0.928211 3.131218 -1.81853 2.474874 -2.474874 
C 1.81853 -3.131218 0.928211 -3.5 0 -3.5 
C -0.928211 -3.5 -1.81853 -3.131218 -2.474874 -2.474874 
C -3.131218 -1.81853 -3.5 -0.928211 -3.5 0 
C -3.5 0.928211 -3.131218 1.81853 -2.474874 2.474874 
C -1.81853 3.131218 -0.928211 3.5 0 3.5 
z
" style="stroke: #5a6b8c"/>
    </defs>
    <g clip-path="url(#pe27f3b26f8)">
     <use xlink:href="#mb56b8676cb" x="333.213448" y="55.8" style="fill: #5a6b8c; stroke: #5a6b8c"/>
    </g>
   </g>
   <g id="patch_4">
    <path d="M 81 320.4 
L 81 43.2 
" style="fill: none; stroke: #3a3a3a; stroke-width: 0.8; stroke-linejoin: miter; stroke-linecap: square"/>
   </g>
   <g id="patch_5">
    <path d="M 81 320.4 
L 583.2 320.4 
" style="fill: none; stroke: #3a3a3a; stroke-width: 0.8; stroke-linejoin: miter; stroke-linecap: square"/>
   </g>
   <g id="text_12">
    <text style="font-weight: 700; font-size: 13px; font-family: 'DejaVu Sans', 'Bitstream Vera Sans', 'Computer Modern Sans Serif', 'Lucida Grande', 'Verdana', 'Geneva', 'Lucid', 'Arial', 'Helvetica', 'Avant Garde', sans-serif; text-anchor: start; fill: #2a2a2a" x="81" y="37.2" transform="rotate(-0 81 37.2)">Extension 7 (q=13): BOP-DMD frequency matches exact f0 for 0/5 seeds</text>
   </g>
   <g id="legend_1">
    <g id="patch_6">
     <path d="M 427.15625 56.47875 
L 443.15625 56.47875 
L 443.15625 50.87875 
L 427.15625 50.87875 
z
" style="fill: #8e3b6e; opacity: 0.12; stroke: #8e3b6e; stroke-linejoin: miter"/>
    </g>
    <g id="text_13">
     <text style="font-size: 8px; font-family: 'DejaVu Sans', 'Bitstream Vera Sans', 'Computer Modern Sans Serif', 'Lucida Grande', 'Verdana', 'Geneva', 'Lucid', 'Arial', 'Helvetica', 'Avant Garde', sans-serif; text-anchor: start; fill: #2a2a2a" x="449.55625" y="56.47875" transform="rotate(-0 449.55625 56.47875)">+-1% tolerance band (exact f0)</text>
    </g>
    <g id="line2d_37">
     <path d="M 427.15625 65.679375 
L 435.15625 65.679375 
L 443.15625 65.679375 
" style="fill: none; stroke: #2a2a2a; stroke-width: 1.4; stroke-linecap: square"/>
    </g>
    <g id="text_14">
     <text style="font-size: 8px; font-family: 'DejaVu Sans', 'Bitstream Vera Sans', 'Computer Modern Sans Serif', 'Lucida Grande', 'Verdana', 'Geneva', 'Lucid', 'Arial', 'Helvetica', 'Avant Garde', sans-serif; text-anchor: start; fill: #2a2a2a" x="449.55625" y="68.479375" transform="rotate(-0 449.55625 68.479375)">exact f0 = 0.49071 Hz</text>
    </g>
   </g>
  </g>
 </g>
 <defs>
  <clipPath id="pe27f3b26f8">
   <rect x="81" y="43.2" width="502.2" height="277.2"/>
  </clipPath>
 </defs>
</svg>
